<?xml version="1.0" encoding="UTF-8"?>
<svg width="24" height="24" viewBox="0 0 24 24" fill="none" xmlns="http://www.w3.org/2000/svg">
  <path d="M12 2C6.477 2 2 6.477 2 12C2 16.42 4.865 20.17 8.84 21.5C9.34 21.58 9.53 21.27 9.53 21C9.53 20.77 9.52 20.14 9.52 19.69C7 20.09 6.35 18.97 6.15 18.35C6.04 18.1 5.6 17.17 5.2 17C4.9 16.85 4.58 16.66 4.55 16.46C4.42 16.39 4.1 16.81 4.1 16.81C3.73 17.79 4.1 18.17 4.12 18.22C4.6 19.48 5.7 19.32 6.58 19.06C6.66 18.67 6.8 18.41 6.92 18.34C5.22 18.09 3.63 17.31 3.63 12.79C3.63 11.3 4.1 10.04 4.85 9.07C4.73 8.76 4.37 7.38 4.94 5.54C4.94 5.54 6.1 5.2 9.52 6.96C10.32 6.64 11.16 6.48 12 6.48C12.84 6.48 13.68 6.64 14.48 6.96C17.9 5.2 19.06 5.54 19.06 5.54C19.63 7.38 19.27 8.76 19.15 9.07C19.9 10.04 20.37 11.3 20.37 12.79C20.37 17.31 18.78 18.09 17.08 18.34C17.3 18.39 17.48 18.85 17.48 19.67C17.48 20.94 17.47 21.79 17.47 21C17.47 21.27 17.66 21.59 18.16 21.5C22.135 20.17 25 16.42 25 12C25 6.477 20.523 2 15 2H12Z" fill="currentColor"/>
</svg> 