<?xml version="1.0" encoding="UTF-8"?>
<svg width="24" height="24" viewBox="0 0 24 24" fill="none" xmlns="http://www.w3.org/2000/svg">
  <path d="M19 3C20.1046 3 21 3.89543 21 5V19C21 20.1046 20.1046 21 19 21H5C3.89543 21 3 20.1046 3 19V5C3 3.89543 3.89543 3 5 3H19ZM18.5 18.5V13.2C18.5 11.5 17.04 10.04 15.34 10.04C14.15 10.04 13.11 10.86 12.68 12.04C12.63 12.21 12.58 12.39 12.58 12.58V18.5H9.91V9.12H12.58V10.56C12.88 9.9 13.54 9.45 14.28 9.45C15.31 9.45 16.16 10.3 16.16 11.33V18.5H18.5ZM6.88 8.56C6.32 8.56 5.88 8.12 5.88 7.56C5.88 7 6.32 6.56 6.88 6.56C7.44 6.56 7.88 7 7.88 7.56C7.88 8.12 7.44 8.56 6.88 8.56ZM8.26 18.5V9.12H5.59V18.5H8.26Z" fill="currentColor"/>
</svg> 